# xmcd CD database file
#
# Track frame offsets:
#	150
#	13955
#	28852
#	40990
#	50442
#	63557
#	77040
#	91870
#	107865
#	118525
#
# Disc length: 1752 seconds
#
# Revision: 1
# Processed by: cddbd v1.5.1PL0 Copyright (c) Steve Scherf et al.
# Submitted via: CDex 1.51
#
DISCID=8206d60a
DTITLE=George Jones and Tammy Wynette - Best Of The Best
DYEAR=1900
DGENRE=Country
TTITLE0=Golden Ring (George Jones and Tammy Wynette)
TTITLE1=He Stopped Loving Her Today (George Jones)
TTITLE2='Til I Get It Right (Tammy Wynette)
TTITLE3=The Race Is On (George Jones)
TTITLE4=Womanhood (Tammy Wynette)
TTITLE5=D-I-V-O-R-C-E (Tammy Wynette)
TTITLE6=Who's Gonna Fill Their Shoes (George Jones)
TTITLE7=The Wonders You Perform (Tammy Wynette)
TTITLE8=Her Name Is ... (George Jones)
TTITLE9=Things Have Gone To Pieces (George Jones)
EXTD=
EXTT0=
EXTT1=
EXTT2=
EXTT3=
EXTT4=
EXTT5=
EXTT6=
EXTT7=
EXTT8=
EXTT9=
PLAYORDER=
